<svg width="151" height="30" viewBox="0 0 151 30" fill="none" xmlns="http://www.w3.org/2000/svg">
<path d="M13.4711 4.52069L14.367 3.97673C14.495 3.31544 14.239 2.98479 13.5991 2.98479C12.6818 2.98479 12.2231 3.68875 12.2231 5.09665C12.2231 5.65128 12.2978 6.29123 12.4471 7.01651C14.0684 8.10444 14.879 9.50168 14.879 11.2082C14.879 12.8934 14.2923 14.2053 13.1191 15.144C11.9458 16.0826 10.3566 16.5519 8.35142 16.5519C7.51948 16.5519 6.65554 16.4665 5.7596 16.2959C4.821 16.8932 4.3517 17.3411 4.3517 17.6398C4.3517 17.9384 5.03432 18.0877 6.39956 18.0877H9.66333C14.5057 18.0877 16.9268 19.8263 16.9268 23.3034C16.9268 25.1806 16.1909 26.6632 14.719 27.7511C13.2684 28.8603 10.9966 29.415 7.90345 29.415C2.63448 29.415 0 28.2737 0 25.9912C0 24.754 0.821276 23.9007 2.46383 23.4314L4.3837 24.2953C4.21304 24.9139 4.12771 25.5006 4.12771 26.0552C4.12771 27.8897 5.49295 28.807 8.22343 28.807C9.88731 28.807 11.1672 28.4977 12.0632 27.8791C12.9591 27.2604 13.4071 26.4925 13.4071 25.5752C13.4071 24.658 13.1298 24.0393 12.5751 23.7194C12.0418 23.4207 10.9646 23.2714 9.34335 23.2714H6.23957C4.51169 23.2714 3.27444 22.9834 2.52782 22.4074C1.78121 21.8315 1.4079 21.1275 1.4079 20.2956C1.4079 19.4423 1.67455 18.7384 2.20785 18.1837C2.74114 17.6078 3.69041 16.9038 5.05565 16.0719C2.58115 15.3679 1.34391 13.7467 1.34391 11.2082C1.34391 9.60834 1.91987 8.31776 3.07179 7.33649C4.22371 6.35523 5.95159 5.86459 8.25543 5.86459C9.642 5.86459 10.8259 6.13124 11.8072 6.66454C11.6792 6.08858 11.6152 5.56595 11.6152 5.09665C11.6152 3.90206 11.9352 3.03812 12.5751 2.50483C13.2151 1.97153 13.9297 1.70488 14.719 1.70488C15.5083 1.70488 16.1375 1.9182 16.6068 2.34484C17.0975 2.75014 17.3428 3.31544 17.3428 4.04072C17.3428 4.766 17.1508 5.30997 16.7668 5.67261C16.3829 6.01392 15.9136 6.18457 15.3589 6.18457C14.8256 6.18457 14.3777 6.04592 14.015 5.7686C13.6737 5.46996 13.4924 5.05398 13.4711 4.52069ZM6.68754 10.5043V12.2322C6.68754 13.6614 6.80486 14.632 7.03951 15.144C7.29549 15.6559 7.6688 15.9119 8.15943 15.9119C8.6714 15.9119 9.03404 15.6666 9.24736 15.1759C9.48201 14.664 9.59933 13.6294 9.59933 12.0722V10.5043C9.59933 8.84039 9.49267 7.75246 9.27935 7.2405C9.06604 6.7072 8.70339 6.44055 8.19143 6.44055C7.7008 6.44055 7.32749 6.71787 7.07151 7.2725C6.81553 7.80579 6.68754 8.88305 6.68754 10.5043Z" fill="#1B1D21"/>
<path d="M28.0448 7.08051C27.2555 7.08051 26.5622 7.59248 25.9649 8.6164C25.3677 9.64033 25.069 10.8562 25.069 12.2642V20.8396H27.3408V21.4155H17.3575V20.8396H19.1174V6.76053H17.3575V6.18457H25.069V9.25636C25.3463 8.16843 25.8796 7.33649 26.6689 6.76053C27.4582 6.16324 28.3541 5.86459 29.3567 5.86459C30.3593 5.86459 31.1699 6.15258 31.7885 6.72854C32.4285 7.28316 32.7485 8.08311 32.7485 9.12837C32.7485 10.1523 32.5138 10.9416 32.0445 11.4962C31.5752 12.0508 30.8499 12.3281 29.8687 12.3281C28.9087 12.3281 28.1941 12.0082 27.7248 11.3682C27.2769 10.7283 27.2235 9.84299 27.5648 8.7124H28.7168C29.25 7.62447 29.0261 7.08051 28.0448 7.08051Z" fill="#1B1D21"/>
<path d="M41.4594 21.7355C38.7076 21.7355 36.6384 21.0315 35.2518 19.6236C33.8866 18.1944 33.2039 16.2212 33.2039 13.7041C33.2039 11.1656 33.9719 9.22436 35.5078 7.88046C37.065 6.53655 39.0382 5.86459 41.4274 5.86459C46.2697 5.86459 48.5949 8.29643 48.4029 13.1601H39.3795V14.408C39.3795 16.4985 39.6462 18.0771 40.1795 19.1437C40.7128 20.2103 41.6407 20.7436 42.9633 20.7436C45.4378 20.7436 47.059 19.421 47.8269 16.7758L48.4029 16.8718C47.9976 18.4077 47.2616 19.6023 46.195 20.4556C45.1498 21.3089 43.5712 21.7355 41.4594 21.7355ZM39.4115 12.5201H42.7073V10.9522C42.7073 9.22436 42.6006 8.05111 42.3873 7.43249C42.1953 6.79253 41.79 6.47255 41.1714 6.47255C40.5741 6.47255 40.1261 6.81386 39.8275 7.49648C39.5502 8.15777 39.4115 9.30969 39.4115 10.9522V12.5201Z" fill="#1B1D21"/>
<path d="M49.6068 6.18457H57.3183V9.12837C57.6596 8.1471 58.1822 7.35782 58.8862 6.76053C59.5901 6.16324 60.6567 5.86459 62.0859 5.86459C65.3924 5.86459 67.0456 7.6458 67.0456 11.2082V20.8396H68.8375V21.4155H59.7821V20.8396H61.094V10.4403C61.094 9.16037 61.0087 8.33909 60.838 7.97645C60.6674 7.59247 60.3581 7.40049 59.9101 7.40049C59.2275 7.40049 58.6195 7.84846 58.0862 8.7444C57.5742 9.64033 57.3183 10.7283 57.3183 12.0082V20.8396H58.6942V21.4155H49.6068V20.8396H51.3667V6.76053H49.6068V6.18457Z" fill="#1B1D21"/>
<path d="M70.7038 16.8398V6.76053H68.944V6.18457H70.7038V2.05686L76.6554 0.584961V6.18457H80.8151V6.76053H76.6554V17.5438C76.6554 18.5464 76.7514 19.2823 76.9434 19.7516C77.1567 20.2209 77.5834 20.4556 78.2233 20.4556C78.8633 20.4556 79.4179 20.1356 79.8872 19.4956C80.3778 18.8557 80.6978 17.9811 80.8471 16.8718L81.3911 16.9358C81.2204 18.4077 80.7511 19.581 79.9832 20.4556C79.2152 21.3089 77.946 21.7355 76.1755 21.7355C74.4049 21.7355 73.0503 21.3835 72.1117 20.6796C71.1731 19.9756 70.7038 18.6957 70.7038 16.8398Z" fill="#1B1D21"/>
<path d="M85.5686 21.7355C84.6513 21.7355 83.958 21.4688 83.4887 20.9356C83.0407 20.3809 82.8167 19.7196 82.8167 18.9517C82.8167 18.1624 83.0514 17.5011 83.5207 16.9678C84.0113 16.4345 84.6939 16.1679 85.5686 16.1679C86.4432 16.1679 87.1364 16.3919 87.6484 16.8398C88.1604 17.2878 88.4164 17.9598 88.4164 18.8557C88.4164 19.7516 88.171 20.4556 87.6804 20.9675C87.2111 21.4795 86.5072 21.7355 85.5686 21.7355Z" fill="#1B1D21"/>
<path d="M99.1244 6.44055C98.1858 6.44055 97.5138 6.95252 97.1085 7.97645C96.7032 9.00038 96.5005 10.6963 96.5005 13.0641V14.728C96.5005 16.8398 96.7352 18.3544 97.2045 19.2717C97.6738 20.1889 98.5377 20.6476 99.7963 20.6476C101.055 20.6476 102.057 20.2209 102.804 19.3677C103.551 18.5144 104.031 17.5438 104.244 16.4559L104.82 16.5199C104.415 18.3544 103.668 19.677 102.58 20.4876C101.471 21.3195 99.9456 21.7355 98.0044 21.7355C95.5299 21.7355 93.6314 21.0742 92.3088 19.7516C90.9863 18.4077 90.325 16.4559 90.325 13.896C90.325 11.3149 91.0716 9.33102 92.5648 7.94445C94.0794 6.55788 96.1806 5.86459 98.8684 5.86459C100.767 5.86459 102.217 6.2379 103.22 6.98452C104.223 7.7098 104.724 8.62707 104.724 9.73633C104.724 10.8456 104.479 11.6562 103.988 12.1682C103.519 12.6801 102.857 12.9361 102.004 12.9361C101.172 12.9361 100.5 12.7121 99.9883 12.2642C99.4763 11.8162 99.2204 11.1549 99.2204 10.2803C99.2204 9.89631 99.2737 9.51234 99.3803 9.12837H100.436C100.586 8.70173 100.66 8.31776 100.66 7.97645C100.66 6.95252 100.148 6.44055 99.1244 6.44055Z" fill="#F78CB2"/>
<path d="M115.968 15.112V12.3921C115.968 10.323 115.851 8.81906 115.616 7.88046C115.403 6.92052 114.891 6.44055 114.08 6.44055C113.611 6.44055 113.227 6.57921 112.928 6.85653C112.651 7.11251 112.448 7.54981 112.32 8.16843C112.128 9.12837 112.032 10.5896 112.032 12.5521V15.048C112.032 17.3731 112.096 18.7704 112.224 19.2397C112.374 19.709 112.523 20.0929 112.672 20.3916C112.907 20.9036 113.365 21.1595 114.048 21.1595C114.88 21.1595 115.424 20.6796 115.68 19.7196C115.872 19.037 115.968 17.5011 115.968 15.112ZM113.984 21.7355C111.318 21.7355 109.302 21.0529 107.936 19.6876C106.571 18.3224 105.889 16.3705 105.889 13.832C105.889 11.2722 106.614 9.30969 108.064 7.94445C109.536 6.55788 111.595 5.86459 114.24 5.86459C116.885 5.86459 118.858 6.50455 120.16 7.78446C121.461 9.04304 122.112 10.9736 122.112 13.5761C122.112 19.0157 119.402 21.7355 113.984 21.7355Z" fill="#F78CB2"/>
<path d="M123.006 6.18457H130.718V9.12837C131.422 6.95252 132.968 5.86459 135.358 5.86459C137.768 5.86459 139.229 7.01651 139.741 9.32036C140.488 7.01651 142.056 5.86459 144.445 5.86459C147.581 5.86459 149.149 7.6458 149.149 11.2082V20.8396H150.941V21.4155H142.077V20.8396H143.197V10.4403C143.197 8.81906 143.058 7.86979 142.781 7.59248C142.653 7.46448 142.482 7.40049 142.269 7.40049C141.65 7.40049 141.107 7.81646 140.637 8.6484C140.168 9.48034 139.933 10.5363 139.933 11.8162V20.8396H141.085V21.4155H132.862V20.8396H133.982V10.4403C133.982 8.81906 133.843 7.86979 133.566 7.59248C133.438 7.46448 133.267 7.40049 133.054 7.40049C132.456 7.40049 131.912 7.85912 131.422 8.77639C130.953 9.67233 130.718 10.7496 130.718 12.0082V20.8396H131.87V21.4155H123.006V20.8396H124.766V6.76053H123.006V6.18457Z" fill="#F78CB2"/>
</svg>
